<svg class="border shadow-md" viewBox="0 0 1351.68 675.84" style="width: 1351.68px; height: 675.84px;" xmlns="http://www.w3.org/2000/svg" preserveAspectRatio="none"><rect class="bg" id="bg" x="0" y="0" width="1351.68" height="675.84" fill="#212121"/><g transform="translate(-422.40000000000003 253.44) scale(1)"><path d="M686.5,538Q556,654,417,663.5Q278,673,161.5,547.5Q45,422,133.5,249Q222,76,390,131.5Q558,187,687.5,304.5Q817,422,686.5,538Z" fill="none" stroke="#3b3b3b" stroke-width="10"/></g><g transform="translate(929.28 -422.40000000000003) scale(1)"><path d="M615.5,535.5Q553,649,383,717Q213,785,112.5,603.5Q12,422,114,243.5Q216,65,397,108.5Q578,152,628,287Q678,422,615.5,535.5Z" fill="none" stroke="#3b3b3b" stroke-width="10"/></g></svg>