<?xml version="1.0" standalone="no"?>
<svg version="1.0" xmlns="http://www.w3.org/2000/svg"
 width="279.000000pt" height="289.000000pt" viewBox="0 0 279.000000 289.000000"
 preserveAspectRatio="xMidYMid meet">

<g transform="translate(0.000000,289.000000) scale(0.100000,-0.100000)"
fill="#000000" stroke="none">
<path d="M1240 2844 c-391 -49 -715 -212 -1018 -511 l-95 -95 64 -64 64 -64
80 79 c200 196 387 320 595 396 204 74 453 101 645 72 326 -51 593 -189 855
-444 l106 -102 62 55 c34 31 62 61 62 68 0 14 -152 165 -240 236 -214 175
-462 295 -730 352 -93 19 -363 33 -450 22z"/>
<path d="M1287 2379 c-260 -25 -512 -142 -710 -329 l-62 -59 64 -65 64 -65 66
61 c190 174 401 265 639 275 144 7 240 -6 362 -49 145 -51 261 -122 375 -229
l60 -57 67 63 68 63 -73 69 c-190 180 -448 297 -713 323 -54 5 -103 9 -109 8
-5 0 -49 -4 -98 -9z"/>
<path d="M1203 1905 c-112 -30 -238 -109 -330 -206 -46 -48 -93 -109 -93 -120
0 -3 30 -33 66 -65 l66 -58 21 30 c81 113 202 207 305 238 l62 19 0 89 c0 101
2 99 -97 73z"/>
<path d="M1500 1830 l0 -89 42 -12 c105 -28 212 -105 285 -204 27 -35 51 -64
54 -65 4 0 36 27 72 59 l66 60 -50 65 c-88 117 -209 203 -351 250 -121 41
-118 42 -118 -64z"/>
<path d="M1324 1459 c-59 -17 -126 -71 -158 -129 -27 -48 -31 -65 -31 -130 0
-57 6 -85 22 -115 49 -92 137 -144 242 -145 77 0 130 22 185 78 53 53 69 87
74 167 4 58 0 80 -18 123 -52 120 -192 187 -316 151z m145 -138 c69 -49 87
-136 42 -200 -80 -111 -251 -58 -251 78 0 118 119 187 209 122z"/>
<path d="M1542 757 c-153 -56 -191 -256 -69 -364 79 -69 193 -69 292 -2 l35
24 0 83 0 82 -89 0 c-93 0 -101 -4 -101 -51 0 -16 7 -19 55 -19 54 0 55 -1 55
-29 0 -23 -7 -32 -34 -45 -124 -58 -243 64 -181 184 32 62 138 81 193 35 l29
-24 29 30 29 30 -32 29 c-52 47 -140 62 -211 37z"/>
<path d="M30 555 c0 -198 1 -205 20 -205 19 0 20 8 22 172 l3 172 129 -172
c87 -117 134 -172 147 -172 18 0 19 11 19 205 0 198 -1 205 -20 205 -19 0 -20
-7 -20 -172 l0 -172 -127 172 c-99 132 -133 171 -150 172 l-23 0 0 -205z"/>
<path d="M550 555 l0 -205 145 0 c122 0 145 2 145 15 0 13 -21 15 -125 15
l-125 0 0 80 0 80 110 0 c103 0 110 1 110 20 0 19 -7 20 -110 20 l-110 0 0 73
0 73 35 -4 c20 -2 74 -1 120 3 63 5 85 10 85 21 0 11 -26 14 -140 14 l-140 0
0 -205z"/>
<path d="M960 754 c0 -3 30 -44 66 -91 36 -47 68 -91 71 -98 2 -8 -30 -56 -71
-109 -42 -52 -76 -97 -76 -100 0 -3 9 -6 19 -6 13 0 38 24 67 63 26 34 58 74
70 89 l23 28 71 -90 c47 -60 77 -90 91 -90 26 0 20 11 -69 121 l-70 86 35 44
c122 153 126 159 100 159 -18 0 -39 -20 -88 -85 -35 -47 -67 -84 -71 -83 -3 2
-34 40 -67 86 -41 54 -68 82 -81 82 -11 0 -20 -3 -20 -6z"/>
<path d="M1940 555 l0 -205 155 0 155 0 0 35 0 35 -110 0 -110 0 0 50 0 50 95
0 95 0 0 40 0 40 -95 0 -95 0 0 40 0 40 110 0 110 0 0 40 0 40 -155 0 -155 0
0 -205z"/>
<path d="M2390 555 l0 -205 45 0 44 0 3 128 3 127 94 -127 c92 -126 94 -128
132 -128 l39 0 0 205 0 205 -45 0 -44 0 -3 -124 -3 -125 -94 125 c-92 121 -95
124 -132 124 l-39 0 0 -205z"/>
<path d="M477 210 c-34 -27 -43 -70 -22 -114 25 -53 88 -69 133 -34 22 18 13
30 -10 14 -32 -23 -65 -20 -93 9 -30 30 -32 64 -4 99 22 28 75 36 97 14 6 -6
15 -8 19 -4 13 12 -28 36 -63 36 -17 0 -43 -9 -57 -20z"/>
<path d="M775 218 c-51 -30 -61 -98 -21 -145 34 -39 98 -39 132 0 67 78 -23
195 -111 145z m95 -28 c42 -42 9 -130 -49 -130 -58 0 -95 87 -54 132 22 24 77
24 103 -2z"/>
<path d="M1050 141 c0 -112 18 -132 22 -25 l3 78 58 -77 c31 -42 60 -77 62
-77 3 0 4 44 3 98 l-2 97 -5 -79 -6 -80 -58 77 c-31 42 -62 77 -67 77 -6 0
-10 -38 -10 -89z"/>
<path d="M1351 188 c1 -24 4 -68 9 -98 l7 -55 2 78 c0 42 4 77 9 77 4 0 32
-34 61 -75 30 -41 59 -75 63 -75 4 0 8 43 8 95 0 57 -4 95 -10 95 -6 0 -10
-32 -10 -76 l0 -77 -57 76 c-32 42 -64 77 -70 77 -9 0 -13 -15 -12 -42z"/>
<path d="M1660 135 l0 -95 59 0 c33 0 63 5 66 10 4 6 -15 10 -49 10 l-56 0 0
35 c0 35 0 35 45 35 25 0 45 5 45 10 0 6 -20 10 -45 10 -43 0 -45 1 -45 30 0
29 1 30 49 30 28 0 53 5 56 10 4 6 -18 10 -59 10 l-66 0 0 -95z"/>
<path d="M1959 217 c-63 -48 -44 -156 30 -172 31 -7 91 17 91 35 0 14 -12 12
-34 -5 -65 -49 -139 44 -90 114 13 18 23 22 53 19 20 -3 45 -8 56 -12 17 -7
17 -5 -4 13 -26 23 -77 27 -102 8z"/>
<path d="M2200 220 c0 -5 14 -10 30 -10 l30 0 0 -86 c0 -54 4 -83 10 -79 6 3
10 42 10 86 l0 79 30 0 c17 0 30 5 30 10 0 6 -30 10 -70 10 -40 0 -70 -4 -70
-10z"/>
<path d="M20 135 c0 -13 23 -15 145 -15 122 0 145 2 145 15 0 13 -23 15 -145
15 -122 0 -145 -2 -145 -15z"/>
<path d="M2470 135 c0 -13 23 -15 145 -15 122 0 145 2 145 15 0 13 -23 15
-145 15 -122 0 -145 -2 -145 -15z"/>
</g>
</svg>
